<svg xmlns="http://www.w3.org/2000/svg" width="21.133" height="26.28" viewBox="0 0 21.133 26.28">
  <g id="Grupo_407" data-name="Grupo 407" transform="translate(-1973 1985.948)">
    <path id="Trazado_817" data-name="Trazado 817" d="M-1194.655,133.537c0-.147.012-.3,0-.441s.047-.18.184-.175c.3.01.6,0,.9.006.121,0,.149-.036.148-.152q-.006-1.841,0-3.681c0-.143-.051-.163-.176-.163q-2.406.006-4.812,0c-.735,0-1.47,0-2.2,0-.147,0-.18-.041-.177-.181.007-.433,0-.44.42-.431.158,0,.2-.038.2-.2-.006-2.314,0-4.627-.008-6.94,0-.178.032-.234.224-.233q2.7.013,5.407,0c.175,0,.206.048.205.211-.005,2.314,0,4.627-.007,6.941,0,.17.035.237.216.22a3.26,3.26,0,0,1,.555,0c.156.012.156-.068.156-.183q0-1.668,0-3.336,0-5.359,0-10.717c0-.146.031-.192.186-.192q5.34.007,10.679,0c.182,0,.184.075.184.213q0,9.3,0,18.6c0,.168.03.236.214.222.235-.018.473,0,.709,0,0,.179,0,.358,0,.536,0,.064-.008.092-.078.078a.508.508,0,0,0-.1,0Zm1.841-9.838v.4q0,4.324,0,8.648c0,.146.041.179.181.178q1.045-.011,2.09,0c.146,0,.193-.031.192-.187-.008-.85,0-1.7-.006-2.55a2.4,2.4,0,0,1,.192-.988,2.58,2.58,0,0,1,2.22-1.681,2.659,2.659,0,0,1,2.806,2.7c0,.844,0,1.687-.005,2.531,0,.147.042.179.182.177q.9-.012,1.8,0c.132,0,.171-.031.171-.168q-.005-9.032,0-18.063c0-.155-.046-.187-.192-.187q-4.727.006-9.453,0c-.139,0-.182.029-.182.177Q-1192.811,119.192-1192.814,123.7Zm-2.147,1.247c0-1.054,0-2.109,0-3.163,0-.155-.021-.219-.2-.218q-2.109.013-4.217,0c-.151,0-.191.04-.19.19q.008,3.192,0,6.383c0,.135.021.185.174.184q2.128-.01,4.255,0c.141,0,.182-.033.181-.178C-1194.964,127.079-1194.961,126.012-1194.961,124.945Zm7.363,5.582q0,1.111,0,2.223c0,.1-.013.181.141.178.524-.01,1.048-.006,1.571,0,.1,0,.133-.023.133-.127,0-.913.015-1.827-.01-2.74a1.948,1.948,0,0,0-1.673-1.9c-.152-.023-.164.023-.163.15C-1187.6,129.045-1187.6,129.786-1187.6,130.527Zm-.612.018q0-1.074,0-2.147c0-.225,0-.227-.221-.151a1.961,1.961,0,0,0-1.309,1.829c-.013.9,0,1.8-.008,2.7,0,.122.038.15.152.148.4-.006.805-.009,1.208,0,.14,0,.184-.03.182-.178C-1188.215,132.014-1188.211,131.279-1188.211,130.545Z" transform="translate(3173.795 -2093.209)" fill="#3e729a"/>
    <path id="Trazado_818" data-name="Trazado 818" d="M-1059.189,133.494c0,.5,0,1,0,1.494,0,.124-.018.178-.162.177-.919-.006-1.839,0-2.758,0-.115,0-.152-.028-.152-.148q.007-1.542,0-3.084c0-.122.039-.148.152-.147.92,0,1.839.006,2.758,0,.145,0,.163.054.162.178C-1059.193,132.472-1059.189,132.983-1059.189,133.494Zm-.613-.02h0c0-.313,0-.626,0-.939,0-.09-.012-.139-.122-.138-.53.005-1.06,0-1.59,0-.1,0-.134.026-.133.129q.006.948,0,1.9c0,.1.036.127.133.126.524,0,1.047-.007,1.571,0,.13,0,.143-.051.141-.158C-1059.806,134.087-1059.8,133.78-1059.8,133.474Z" transform="translate(3044.772 -2109.869)" fill="#3e729a"/>
    <path id="Trazado_819" data-name="Trazado 819" d="M-1004.168,133.471c0-.5,0-1.009,0-1.514,0-.128.039-.158.161-.158q1.379.007,2.759,0c.114,0,.153.026.152.147q-.007,1.552,0,3.1c0,.1-.035.128-.132.127-.932,0-1.865,0-2.8,0-.128,0-.143-.048-.142-.156C-1004.165,134.506-1004.168,133.988-1004.168,133.471Zm.612.011c0,.313,0,.626,0,.939,0,.1.024.146.137.145.53-.005,1.06,0,1.59,0,.094,0,.118-.033.118-.122q0-.948,0-1.9c0-.1-.021-.135-.126-.134q-.8.007-1.59,0c-.1,0-.131.031-.13.131C-1003.552,132.856-1003.556,133.169-1003.555,133.482Z" transform="translate(2990.672 -2109.884)" fill="#3e729a"/>
    <path id="Trazado_820" data-name="Trazado 820" d="M-1001.1,249.688c0,.5,0,1,0,1.494,0,.125-.02.177-.163.176q-1.379-.01-2.759,0c-.117,0-.151-.03-.151-.149q.007-1.542,0-3.085c0-.125.042-.145.154-.145q1.38.006,2.759,0c.123,0,.162.03.161.158C-1001.108,248.654-1001.1,249.171-1001.1,249.688Zm-.612-.022c0-.307,0-.613,0-.92,0-.111-.023-.157-.147-.155-.524.007-1.047.005-1.571,0-.1,0-.129.034-.128.132q.005.939,0,1.878c0,.1.021.145.136.144q.785-.009,1.571,0c.109,0,.142-.032.14-.14C-1001.72,250.292-1001.716,249.979-1001.716,249.666Z" transform="translate(2990.675 -2218.085)" fill="#3e729a"/>
    <path id="Trazado_821" data-name="Trazado 821" d="M-1062.269,249.638c0-.5,0-1.009,0-1.513,0-.119.025-.166.156-.165q1.379.009,2.759,0c.126,0,.16.036.159.16q-.007,1.523,0,3.046c0,.128-.027.176-.166.175q-1.379-.01-2.759,0c-.119,0-.151-.034-.15-.151C-1062.266,250.672-1062.269,250.155-1062.269,249.638Zm.613.008h0c0,.313,0,.626,0,.939,0,.106.024.144.137.143q.786-.008,1.571,0c.112,0,.138-.037.138-.143q-.007-.939,0-1.878c0-.1-.023-.134-.127-.133q-.8.007-1.591,0c-.1,0-.129.036-.128.133C-1061.653,249.02-1061.656,249.333-1061.656,249.646Z" transform="translate(3044.784 -2218.068)" fill="#3e729a"/>
    <path id="Trazado_822" data-name="Trazado 822" d="M-1004.178,191.554c0-.5,0-1.009,0-1.513,0-.124.019-.179.163-.178.919.007,1.839.006,2.758,0,.114,0,.154.025.153.147q-.008,1.542,0,3.084c0,.121-.04.149-.153.148q-1.389-.006-2.778,0c-.128,0-.144-.05-.143-.157C-1004.176,192.576-1004.178,192.065-1004.178,191.554Zm.613-.016h0c0,.313,0,.626,0,.939,0,.112.02.156.145.155q.776-.011,1.552,0c.12,0,.15-.034.149-.151q-.009-.929,0-1.859c0-.1-.02-.146-.135-.144q-.786.009-1.572,0c-.11,0-.141.033-.139.141C-1003.561,190.925-1003.565,191.231-1003.565,191.538Z" transform="translate(2990.682 -2163.96)" fill="#3e729a"/>
    <path id="Trazado_823" data-name="Trazado 823" d="M-1062.249,191.572c0-.511,0-1.022,0-1.533,0-.113.023-.154.146-.154q1.389.008,2.778,0c.122,0,.148.038.147.152q-.006,1.542,0,3.085c0,.105-.023.143-.137.142q-1.4-.007-2.8,0c-.111,0-.139-.034-.138-.141C-1062.246,192.607-1062.249,192.089-1062.249,191.572Zm2.455,0c0-.307-.006-.613,0-.92,0-.129-.041-.159-.162-.157q-.766.009-1.533,0c-.113,0-.155.023-.153.147q.01.929,0,1.858c0,.121.04.15.153.149.517-.005,1.035-.007,1.552,0,.13,0,.143-.053.141-.158C-1059.8,192.188-1059.795,191.882-1059.794,191.575Z" transform="translate(3044.765 -2163.981)" fill="#3e729a"/>
    <path id="Trazado_824" data-name="Trazado 824" d="M-1163.189,231.02c0,.262-.005.523,0,.785,0,.112-.036.139-.142.138q-.785-.007-1.57,0c-.1,0-.133-.024-.132-.128q.007-.794,0-1.589c0-.1.034-.128.132-.127.523,0,1.046.006,1.569,0,.128,0,.145.049.143.157C-1163.193,230.509-1163.189,230.765-1163.189,231.02Zm-1.23-.011c.031.135-.1.343.21.325.407-.024.408-.005.408-.333,0-.287,0-.271-.427-.293C-1164.518,230.693-1164.384,230.892-1164.419,231.008Z" transform="translate(3140.487 -2201.432)" fill="#3e729a"/>
    <path id="Trazado_825" data-name="Trazado 825" d="M-1164.129,261.379c.255,0,.51,0,.766,0,.107,0,.159.014.157.143-.007.523-.005,1.046,0,1.569,0,.1-.023.134-.127.133q-.794-.007-1.588,0c-.1,0-.129-.034-.129-.132,0-.523.006-1.046,0-1.569,0-.128.051-.145.158-.143C-1164.639,261.383-1164.384,261.379-1164.129,261.379Zm-.016,1.228c.323,0,.323,0,.323-.317v-.019c0-.276,0-.276-.284-.278-.334,0-.334,0-.332.325C-1164.434,262.607-1164.434,262.607-1164.145,262.607Z" transform="translate(3140.507 -2230.563)" fill="#3e729a"/>
    <path id="Trazado_826" data-name="Trazado 826" d="M-1164.116,292.668c.262,0,.523.005.785,0,.112,0,.138.035.138.141-.005.523,0,1.046,0,1.57,0,.1-.022.134-.127.133q-.794-.007-1.589,0c-.1,0-.128-.033-.128-.131,0-.523.006-1.047,0-1.57,0-.128.049-.145.157-.143C-1164.627,292.672-1164.371,292.668-1164.116,292.668Zm.308.918c0-.305,0-.305-.278-.305-.337,0-.337,0-.337.243,0,.372,0,.372.325.372C-1163.808,293.895-1163.808,293.895-1163.808,293.585Z" transform="translate(3140.494 -2259.703)" fill="#3e729a"/>
    <path id="Trazado_827" data-name="Trazado 827" d="M-1197.429,51.168l.39-1.2-1.021-.742h1.263l.39-1.2.39,1.2h1.262l-1.021.742.39,1.2-1.021-.742Zm1.021-1.082.5.362-.191-.587.5-.363h-.617l-.191-.587-.191.587h-.617l.5.363-.191.587Z" transform="translate(3171.248 -2031.861)" fill="#3e729a"/>
    <path id="Trazado_828" data-name="Trazado 828" d="M-940.537,51.168l.39-1.2-1.021-.742h1.263l.39-1.2.39,1.2h1.263l-1.021.742.39,1.2-1.022-.742Zm1.021-1.082.5.362-.191-.587.5-.363h-.617l-.191-.587-.191.587h-.617l.5.363-.191.587Z" transform="translate(2931.996 -2031.861)" fill="#3e729a"/>
    <path id="Trazado_829" data-name="Trazado 829" d="M-1142.064,34.123l-1.274-.926-1.274.926.487-1.5-1.274-.926h1.575l.487-1.5.487,1.5h1.575l-1.274.926Zm-1.274-1.35.621.451-.237-.73.621-.451h-.768l-.237-.73-.237.73h-.768l.621.451-.237.73Z" transform="translate(3122.204 -2015.261)" fill="#3e729a"/>
    <path id="Trazado_830" data-name="Trazado 830" d="M-1002.406,34.123l-1.274-.926-1.274.926.487-1.5-1.274-.926h1.575l.487-1.5.487,1.5h1.575l-1.274.926Zm-2.279-2.081.621.451-.237.73.621-.451.621.451-.237-.73.621-.451h-.768l-.237-.73-.237.73Z" transform="translate(2992.136 -2015.261)" fill="#3e729a"/>
    <path id="Trazado_831" data-name="Trazado 831" d="M-1078.276,22.09l-1.563-1.135-1.563,1.135.6-1.837-1.563-1.135h1.932l.6-1.837.6,1.837h1.932l-1.563,1.135Zm-1.563-1.56.91.661-.347-1.069.91-.661h-1.124l-.348-1.069-.347,1.069h-1.124l.91.661-.347,1.069Z" transform="translate(3063.499 -2003.229)" fill="#3e729a"/>
  </g>
</svg>
