<svg xmlns="http://www.w3.org/2000/svg" width="22.211" height="22.209" viewBox="0 0 22.211 22.209">
  <g id="Grupo_408" data-name="Grupo 408" transform="translate(-1973 1934.873)">
    <path id="Trazado_786" data-name="Trazado 786" d="M21.72,23.545H3.058a.832.832,0,0,0-.123-.039,1.832,1.832,0,0,1-1.646-1.928q0-7.671,0-15.341a2.573,2.573,0,0,1,.043-.474,1.835,1.835,0,0,1,3.629.269c.017.536.017.536.556.493h.022c.1.008.143-.049.159-.138a5.682,5.682,0,0,1,.44-1.264c.074-.169.185-.392.091-.549a.949.949,0,0,1-.123-.532c0-.239,0-.477,0-.716,0-.1-.02-.158-.128-.189a.313.313,0,0,1-.235-.325c0-.369-.005-.738,0-1.107a.348.348,0,1,1,.7,0c.006.181.012.362,0,.542-.009.16.047.216.209.214.484-.008.969,0,1.454,0,1.107,0,2.213-.006,3.32,0,.2,0,.254-.058.237-.246a3.973,3.973,0,0,1,0-.5.357.357,0,1,1,.713,0c.007.362.005.723,0,1.085a.323.323,0,0,1-.229.334c-.143.04-.151.127-.15.243,0,.3,0,.593,0,.89,0,.142-.038.279-.171.323-.173.057-.2.145-.144.3a.3.3,0,0,1,.018.15,1.551,1.551,0,0,0,.544,1.353.354.354,0,0,0,.291.139q3.407,0,6.813,0c.453,0,.453,0,.465-.452a1.836,1.836,0,0,1,3.59-.477,1.019,1.019,0,0,0,.094.33V21.9a1.248,1.248,0,0,0-.049.14,1.818,1.818,0,0,1-1.393,1.44C21.945,23.506,21.823,23.481,21.72,23.545ZM12.1,10.057a.68.68,0,0,0-.051.314c-.052,1.083-.1,2.167-.148,3.25a.991.991,0,1,1-1.98-.028c0-.419-.007-.839,0-1.258,0-.162-.046-.212-.208-.211a1.137,1.137,0,0,1-1-.543.32.32,0,0,0-.319-.159,1.053,1.053,0,0,1-.842-.275,1.66,1.66,0,0,0-.916-.535,1.171,1.171,0,0,1-.8-1,9.931,9.931,0,0,1-.2-1.959c-.014-.434-.021-.426-.456-.43-.181,0-.233.059-.233.237q.007,5.435,0,10.871,0,1.649,0,3.3c0,.252-.116.391-.326.4s-.36-.122-.386-.374c0-.022,0-.043,0-.065a1.115,1.115,0,0,0-1.453-.977,1.127,1.127,0,0,0-.78,1.23,1.141,1.141,0,0,0,1.159.966l13.757,0q2.354,0,4.709,0a1.125,1.125,0,0,0,.5-2.138,1.114,1.114,0,0,0-1.367.314,1.142,1.142,0,0,0-.243.659c-.02.287-.192.425-.438.377-.189-.037-.272-.164-.272-.428q0-5.967,0-11.934a.778.778,0,0,0-.077-.44.249.249,0,0,1,0-.252.868.868,0,0,0,.078-.484q0-.477,0-.955c0-.3,0-.3-.311-.3q-3.233,0-6.466,0c-.063,0-.148-.028-.185.026-.049.072.032.132.067.189A8.72,8.72,0,0,0,14.237,9.1a.741.741,0,0,1-.076,1.195,1.4,1.4,0,0,1-1.606.06C12.4,10.262,12.258,10.16,12.1,10.057ZM22.771,20.219V10.081c0-1.309,0-2.618,0-3.927a1.123,1.123,0,1,0-2.243.076q0,4.524,0,9.048,0,2.354,0,4.708c0,.18.027.22.2.114a1.694,1.694,0,0,1,.821-.245A1.94,1.94,0,0,1,22.771,20.219ZM2.007,20.206c.086-.046.129-.069.172-.093A1.8,1.8,0,0,1,4.055,20.1c.176.1.2.059.2-.116,0-.882,0-1.765,0-2.647q0-5.565,0-11.13a1.327,1.327,0,0,0-.032-.366,1.123,1.123,0,0,0-2.209.313q0,6.27,0,12.54Zm8.636-8.761c0,.709,0,1.418,0,2.126,0,.23.094.345.267.347s.265-.107.277-.339c.053-1.061.111-2.123.153-3.185.021-.542.009-1.085.016-1.627a.345.345,0,0,1,.355-.379.359.359,0,0,1,.362.378,1.651,1.651,0,0,1,0,.217.225.225,0,0,0,.106.22c.259.184.51.38.773.558a.634.634,0,0,0,.716.007c.1-.059.137-.115.034-.211a10.566,10.566,0,0,1-1.8-2.406,3.632,3.632,0,0,0-1.225-1.293.365.365,0,0,1-.19-.44.324.324,0,0,1,.386-.237c.058.005.113.019.128-.069a.411.411,0,0,0-.375-.467H7.675c-.174,0-.347,0-.521,0s-.2.14-.21.255c-.017.138.109.07.172.08a.364.364,0,0,1,.335.384.345.345,0,0,1-.377.333A.522.522,0,0,0,6.5,6.12a2.583,2.583,0,0,0-.107.441,9.779,9.779,0,0,0,.022,2.055,4.427,4.427,0,0,0,.149.918.607.607,0,0,0,.313.421c.109.05.192.047.188-.118-.008-.289,0-.579,0-.868,0-.271.129-.428.348-.433s.367.151.368.434c0,.4,0,.8,0,1.193a.539.539,0,0,0,.489.543c.157.016.234-.019.229-.2-.013-.441-.005-.882,0-1.323,0-.276.125-.425.35-.429s.366.147.366.433c0,.557,0,1.114,0,1.671a.535.535,0,0,0,.465.561c.182.032.257-.009.253-.216-.013-.622-.006-1.244,0-1.866,0-.243.126-.394.329-.406.234-.015.387.145.388.415C10.644,10.042,10.643,10.744,10.643,11.445ZM9.024,3.933v0c.585,0,1.17,0,1.755,0,.515,0,.507,0,.519-.528,0-.187-.044-.252-.24-.25-1.228.008-2.456,0-3.684.006-.559,0-.552.006-.556.573,0,.167.056.206.212.2C7.7,3.929,8.36,3.933,9.024,3.933Z" transform="translate(1971.712 -1936.208)" fill="#3e729a"/>
    <path id="Trazado_787" data-name="Trazado 787" d="M150.991,250.587a.367.367,0,0,1-.225.312.343.343,0,0,1-.4-.087c-.238-.233-.478-.464-.7-.708-.112-.121-.18-.119-.291,0-.215.234-.445.454-.673.677-.194.19-.393.2-.55.032a.365.365,0,0,1,.047-.537c.228-.232.455-.466.692-.688.107-.1.1-.164,0-.259-.231-.218-.453-.447-.677-.673a.369.369,0,0,1-.053-.552.373.373,0,0,1,.554.045c.206.2.418.4.61.616.139.157.236.185.388.008.192-.224.414-.424.626-.632a.371.371,0,0,1,.554-.033c.15.16.136.347-.047.535-.233.238-.466.474-.707.7-.088.085-.091.14,0,.226.235.225.462.458.694.687A.46.46,0,0,1,150.991,250.587Z" transform="translate(1833.098 -2169.17)" fill="#3e729a"/>
    <path id="Trazado_788" data-name="Trazado 788" d="M255.663,192.581a.375.375,0,0,1-.363-.36.361.361,0,0,1,.367-.35.349.349,0,0,1,.346.344A.357.357,0,0,1,255.663,192.581Z" transform="translate(1731.811 -2116.158)" fill="#3e729a"/>
    <path id="Trazado_789" data-name="Trazado 789" d="M96.532,298.816a.356.356,0,0,1-.361.35.343.343,0,0,1-.354-.351.358.358,0,0,1,.356-.356A.364.364,0,0,1,96.532,298.816Z" transform="translate(1882.434 -2216.826)" fill="#3e729a"/>
    <path id="Trazado_790" data-name="Trazado 790" d="M255.065,271.628a.362.362,0,0,1,.326.389.349.349,0,0,1-.383.326.366.366,0,0,1-.323-.372A.374.374,0,0,1,255.065,271.628Z" transform="translate(1732.392 -2191.484)" fill="#3e729a"/>
    <path id="Trazado_791" data-name="Trazado 791" d="M98.6,325.322a.37.37,0,0,1-.348-.372.355.355,0,0,1,.358-.335.346.346,0,0,1,.356.354A.362.362,0,0,1,98.6,325.322Z" transform="translate(1880.14 -2241.529)" fill="#3e729a"/>
    <path id="Trazado_792" data-name="Trazado 792" d="M221.52,339.739a.359.359,0,0,1-.717-.015.346.346,0,0,1,.353-.336A.354.354,0,0,1,221.52,339.739Z" transform="translate(1764.391 -2255.481)" fill="#3e729a"/>
    <path id="Trazado_793" data-name="Trazado 793" d="M117.032,343.845a.357.357,0,0,1-.368.346.355.355,0,0,1,.022-.71A.347.347,0,0,1,117.032,343.845Z" transform="translate(1863.068 -2259.346)" fill="#3e729a"/>
    <path id="Trazado_794" data-name="Trazado 794" d="M283.03,147.734a.353.353,0,0,1-.354.358.35.35,0,0,1-.342-.348.348.348,0,1,1,.7-.011Z" transform="translate(1706.279 -2074.139)" fill="#3e729a"/>
    <path id="Trazado_795" data-name="Trazado 795" d="M255.1,245.061a.353.353,0,0,1,.344.368.361.361,0,0,1-.37.346.369.369,0,0,1-.336-.362A.353.353,0,0,1,255.1,245.061Z" transform="translate(1732.34 -2166.394)" fill="#3e729a"/>
    <path id="Trazado_796" data-name="Trazado 796" d="M135.134,268.544a.348.348,0,0,1-.356-.356.359.359,0,0,1,.36-.357.372.372,0,0,1,.348.374A.351.351,0,0,1,135.134,268.544Z" transform="translate(1845.637 -2187.899)" fill="#3e729a"/>
    <path id="Trazado_797" data-name="Trazado 797" d="M110.248,276.369a.381.381,0,0,1,.368.351.352.352,0,0,1-.346.363.365.365,0,0,1-.371-.342A.382.382,0,0,1,110.248,276.369Z" transform="translate(1869.134 -2195.963)" fill="#3e729a"/>
    <path id="Trazado_798" data-name="Trazado 798" d="M253.048,298.167a.341.341,0,0,1,.33.376.352.352,0,0,1-.352.338.357.357,0,0,1,.021-.713Z" transform="translate(1734.281 -2216.549)" fill="#3e729a"/>
    <path id="Trazado_799" data-name="Trazado 799" d="M196.421,347.767a.351.351,0,0,1-.343.349.359.359,0,1,1,.343-.349Z" transform="translate(1788.081 -2263.047)" fill="#3e729a"/>
    <path id="Trazado_800" data-name="Trazado 800" d="M265.085,167.265a.349.349,0,1,1-.7-.008.348.348,0,0,1,.354-.356A.342.342,0,0,1,265.085,167.265Z" transform="translate(1723.228 -2092.576)" fill="#3e729a"/>
    <path id="Trazado_801" data-name="Trazado 801" d="M255.462,218.816a.352.352,0,1,1-.7-.011.352.352,0,0,1,.348-.342A.341.341,0,0,1,255.462,218.816Z" transform="translate(1732.321 -2141.274)" fill="#3e729a"/>
    <path id="Trazado_802" data-name="Trazado 802" d="M306.706,136.411a.342.342,0,0,1,.325.381.351.351,0,1,1-.7-.047A.35.35,0,0,1,306.706,136.411Z" transform="translate(1683.616 -2063.78)" fill="#3e729a"/>
    <path id="Trazado_803" data-name="Trazado 803" d="M241.343,322.055a.336.336,0,0,1,.339.365.342.342,0,0,1-.371.335.35.35,0,0,1,.032-.7Z" transform="translate(1745.331 -2239.11)" fill="#3e729a"/>
    <path id="Trazado_804" data-name="Trazado 804" d="M143.144,348.374a.348.348,0,1,1-.352-.347A.328.328,0,0,1,143.144,348.374Z" transform="translate(1838.394 -2263.64)" fill="#3e729a"/>
    <path id="Trazado_805" data-name="Trazado 805" d="M169.819,348.357a.336.336,0,0,1-.341.361.348.348,0,1,1,.341-.361Z" transform="translate(1813.201 -2263.636)" fill="#3e729a"/>
  </g>
</svg>
