<svg xmlns="http://www.w3.org/2000/svg" width="18.201" height="20.194" viewBox="0 0 18.201 20.194">
  <g id="Grupo_409" data-name="Grupo 409" transform="translate(-1976.324 2023)">
    <path id="Trazado_832" data-name="Trazado 832" d="M-388.32,48.456c0-.7,0-1.4,0-2.1,0-.159-.042-.2-.207-.186a8.85,8.85,0,0,0-1.575.275c-.131.037-.181,0-.2-.122-.008-.044-.025-.087-.038-.13-.12-.432-.122-.443.33-.529a9.053,9.053,0,0,1,9.444,3.534,8.079,8.079,0,0,1,1.656,4.211,9,9,0,0,1-3.04,8.006,8.559,8.559,0,0,1-4.473,2.1,8.921,8.921,0,0,1-6.7-1.479,8.862,8.862,0,0,1-3.77-5.911,8.928,8.928,0,0,1,.619-5.277c.073-.167.133-.207.305-.12.437.22.442.212.256.674a8.9,8.9,0,0,0-.606,2.535c-.018.2.03.273.248.268.625-.016,1.251-.01,1.876,0,.15,0,.23-.032.211-.2-.014-.127.043-.176.171-.161a2.436,2.436,0,0,0,.361.02c.146,0,.232.034.2.2-.019.118.054.132.15.132q2.306,0,4.612,0c.126,0,.171-.036.17-.166-.005-.784-.008-1.567,0-2.351,0-.179-.089-.191-.223-.195a11.427,11.427,0,0,1-2.473-.362c-.153-.038-.208-.077-.157-.252.144-.492.134-.493.624-.385a13.339,13.339,0,0,0,1.987.278c.184.012.247-.038.244-.23C-388.326,49.843-388.32,49.149-388.32,48.456Zm3.247,5.738c.761,0,1.521-.005,2.282,0,.181,0,.243-.034.236-.232a12.48,12.48,0,0,0-.578-3.276c-.056-.181-.115-.21-.292-.136a11.728,11.728,0,0,1-4.02.928c-.148.007-.149.076-.148.184,0,.776.006,1.552,0,2.327,0,.179.059.207.22.205C-386.609,54.19-385.841,54.194-385.073,54.194Zm-.017.726c-.768,0-1.537,0-2.305,0-.158,0-.2.04-.2.2.008.761.01,1.522,0,2.283,0,.178.063.212.217.216a10.406,10.406,0,0,1,1.37.135,11.917,11.917,0,0,1,2.513.7c.107.043.167.054.218-.082a12.305,12.305,0,0,0,.712-3.25c.013-.157-.033-.206-.194-.2C-383.538,54.925-384.314,54.92-385.09,54.92Zm-5.7,0c-.76,0-1.52,0-2.28,0-.109,0-.184,0-.172.151a12.457,12.457,0,0,0,.724,3.335c.044.119.1.113.2.075a11.523,11.523,0,0,1,3.783-.847c.177-.008.222-.075.22-.246q-.014-1.14,0-2.28c0-.15-.044-.19-.191-.189C-389.268,54.923-390.028,54.92-390.788,54.92Zm3.2-6.474h0c0,.7.007,1.4,0,2.1,0,.183.051.229.227.217a11.848,11.848,0,0,0,3.771-.913c.109-.046.124-.093.078-.2a12.88,12.88,0,0,0-1.783-2.994.548.548,0,0,0-.295-.19,9.945,9.945,0,0,0-1.8-.311c-.162-.014-.2.032-.2.191C-387.587,47.045-387.591,47.745-387.591,48.445Zm0,12.2c0,.7,0,1.4,0,2.1,0,.137.021.2.182.192a8.379,8.379,0,0,0,1.576-.257.358.358,0,0,0,.2-.14,16.789,16.789,0,0,0,1.948-3.161c.066-.141.055-.2-.1-.256a11.431,11.431,0,0,0-3.617-.783c-.16-.007-.187.041-.186.183C-387.59,59.227-387.593,59.934-387.593,60.642Zm-.727-.011c0-.693-.005-1.386,0-2.078,0-.169-.04-.217-.215-.208a11.37,11.37,0,0,0-3.481.784c-.155.059-.161.126-.1.264a16.793,16.793,0,0,0,1.952,3.161.345.345,0,0,0,.194.144,9.473,9.473,0,0,0,1.445.233c.163.013.2-.043.2-.2C-388.324,62.032-388.32,61.331-388.32,60.631Zm-6.819-5.711h0c-.331,0-.662.009-.993,0-.166-.006-.211.055-.19.207s.026.3.044.449a8.246,8.246,0,0,0,1.563,3.932c.082.112.137.119.25.046a9.229,9.229,0,0,1,1.145-.627c.161-.074.18-.146.121-.3a12.045,12.045,0,0,1-.763-3.553c-.007-.122-.051-.15-.162-.149C-394.461,54.923-394.8,54.92-395.138,54.92Zm14.46,0h0c-.339,0-.678,0-1.017,0-.117,0-.15.035-.158.152a12.56,12.56,0,0,1-.77,3.581c-.048.127-.027.186.093.244a8.467,8.467,0,0,1,1.151.667c.09.063.136.048.2-.036a8.415,8.415,0,0,0,1.64-4.449c.011-.138-.043-.163-.165-.161C-380.03,54.924-380.354,54.92-380.678,54.92Zm-.013-.724c.324,0,.648-.008.971,0,.159.006.195-.054.174-.2-.047-.32-.073-.643-.132-.961a8.6,8.6,0,0,0-1.5-3.47c-.069-.1-.116-.121-.23-.051-.328.2-.664.384-1,.564-.11.058-.128.111-.086.228.09.254.167.514.237.775a11.68,11.68,0,0,1,.419,2.871c0,.179.05.252.244.241C-381.294,54.183-380.992,54.2-380.691,54.2Zm-10.678,8c.007-.023.013-.03.011-.034a17.419,17.419,0,0,1-1.437-2.544c-.048-.108-.107-.1-.193-.051-.334.186-.669.371-1.008.549-.13.069-.107.122-.019.212a8.945,8.945,0,0,0,.957.856A8.109,8.109,0,0,0-391.368,62.2Zm6.96-.066a8.129,8.129,0,0,0,2.585-1.844c.075-.079.055-.115-.026-.167-.322-.208-.656-.394-1-.573-.091-.048-.129-.027-.167.058A19.221,19.221,0,0,1-384.408,62.133Zm.375-15.01a15.852,15.852,0,0,1,1.158,2.194c.035.082.058.175.189.1.278-.164.561-.318.843-.474.081-.045.082-.085.02-.152A7.789,7.789,0,0,0-384.033,47.122Z" transform="translate(2373.373 -2066.449)" fill="#3e729a"/>
    <path id="Trazado_833" data-name="Trazado 833" d="M-373.043,3.8a13.019,13.019,0,0,1-1.7,5.832c-.113.212-.212.432-.325.644a.673.673,0,0,1-.6.383.632.632,0,0,1-.589-.358,18.278,18.278,0,0,1-1.755-4.259,12.376,12.376,0,0,1-.33-2.907A2.731,2.731,0,0,1-376.557.741a2.572,2.572,0,0,1,2.784.69A2.837,2.837,0,0,1-373.043,3.8Zm-2.625,6.038a23.11,23.11,0,0,0,1.263-2.752,11.715,11.715,0,0,0,.637-3.829,1.861,1.861,0,0,0-1.424-1.889,1.92,1.92,0,0,0-2.255,1.059,2.493,2.493,0,0,0-.153,1.105,11.482,11.482,0,0,0,.786,3.892C-376.5,8.244-376.073,9.014-375.669,9.84Z" transform="translate(2355.628 -2023.584)" fill="#3e729a"/>
    <path id="Trazado_834" data-name="Trazado 834" d="M-355.9,32.3a1.638,1.638,0,0,1-1.605-1.569,1.637,1.637,0,0,1,1.547-1.6,1.65,1.65,0,0,1,1.629,1.522A1.639,1.639,0,0,1-355.9,32.3Zm-.875-1.585a.8.8,0,0,0,.86.858.812.812,0,0,0,.863-.861.817.817,0,0,0-.865-.861A.808.808,0,0,0-356.77,30.711Z" transform="translate(2335.858 -2051.124)" fill="#3e729a"/>
  </g>
</svg>
