<svg xmlns="http://www.w3.org/2000/svg" width="22.211" height="22.209" viewBox="0 0 22.211 22.209">
  <path id="Trazado_835" data-name="Trazado 835" d="M21.72,23.545H3.058a.832.832,0,0,0-.123-.039,1.832,1.832,0,0,1-1.646-1.928q0-7.671,0-15.341a2.573,2.573,0,0,1,.043-.474,1.835,1.835,0,0,1,3.629.269c.017.536.017.536.556.493h.022c.1.008.143-.049.159-.138a5.682,5.682,0,0,1,.44-1.264c.074-.169.185-.392.091-.549a.949.949,0,0,1-.123-.532c0-.239,0-.477,0-.716,0-.1-.02-.158-.128-.189a.313.313,0,0,1-.235-.325c0-.369-.005-.738,0-1.107a.348.348,0,1,1,.7,0c.006.181.012.362,0,.542-.009.16.047.216.209.214.484-.008.969,0,1.454,0,1.107,0,2.213-.006,3.32,0,.2,0,.254-.058.237-.246a3.973,3.973,0,0,1,0-.5.357.357,0,1,1,.713,0c.007.362.005.723,0,1.085a.323.323,0,0,1-.229.334c-.143.04-.151.127-.15.243,0,.3,0,.593,0,.89,0,.142-.038.279-.171.323-.173.057-.2.145-.144.3a.3.3,0,0,1,.018.15,1.551,1.551,0,0,0,.544,1.353.354.354,0,0,0,.291.139q3.407,0,6.813,0c.453,0,.453,0,.465-.452a1.836,1.836,0,0,1,3.59-.477,1.019,1.019,0,0,0,.094.33V21.9a1.248,1.248,0,0,0-.049.14,1.818,1.818,0,0,1-1.393,1.44C21.945,23.506,21.823,23.481,21.72,23.545ZM12.1,10.057a.68.68,0,0,0-.051.314c-.052,1.083-.1,2.167-.148,3.25a.991.991,0,1,1-1.98-.028c0-.419-.007-.839,0-1.258,0-.162-.046-.212-.208-.211a1.137,1.137,0,0,1-1-.543.32.32,0,0,0-.319-.159,1.053,1.053,0,0,1-.842-.275,1.66,1.66,0,0,0-.916-.535,1.171,1.171,0,0,1-.8-1,9.931,9.931,0,0,1-.2-1.959c-.014-.434-.021-.426-.456-.43-.181,0-.233.059-.233.237q.007,5.435,0,10.871,0,1.649,0,3.3c0,.252-.116.391-.326.4s-.36-.122-.386-.374c0-.022,0-.043,0-.065a1.115,1.115,0,0,0-1.453-.977,1.127,1.127,0,0,0-.78,1.23,1.141,1.141,0,0,0,1.159.966l13.757,0q2.354,0,4.709,0a1.125,1.125,0,0,0,.5-2.138,1.114,1.114,0,0,0-1.367.314,1.142,1.142,0,0,0-.243.659c-.02.287-.192.425-.438.377-.189-.037-.272-.164-.272-.428q0-5.967,0-11.934a.778.778,0,0,0-.077-.44.249.249,0,0,1,0-.252.868.868,0,0,0,.078-.484q0-.477,0-.955c0-.3,0-.3-.311-.3q-3.233,0-6.466,0c-.063,0-.148-.028-.185.026-.049.072.032.132.067.189A8.72,8.72,0,0,0,14.237,9.1a.741.741,0,0,1-.076,1.195,1.4,1.4,0,0,1-1.606.06C12.4,10.262,12.258,10.16,12.1,10.057ZM22.771,20.219V10.081c0-1.309,0-2.618,0-3.927a1.123,1.123,0,1,0-2.243.076q0,4.524,0,9.048,0,2.354,0,4.708c0,.18.027.22.2.114a1.694,1.694,0,0,1,.821-.245A1.94,1.94,0,0,1,22.771,20.219ZM2.007,20.206c.086-.046.129-.069.172-.093A1.8,1.8,0,0,1,4.055,20.1c.176.1.2.059.2-.116,0-.882,0-1.765,0-2.647q0-5.565,0-11.13a1.327,1.327,0,0,0-.032-.366,1.123,1.123,0,0,0-2.209.313q0,6.27,0,12.54Zm8.636-8.761c0,.709,0,1.418,0,2.126,0,.23.094.345.267.347s.265-.107.277-.339c.053-1.061.111-2.123.153-3.185.021-.542.009-1.085.016-1.627a.345.345,0,0,1,.355-.379.359.359,0,0,1,.362.378,1.651,1.651,0,0,1,0,.217.225.225,0,0,0,.106.22c.259.184.51.38.773.558a.634.634,0,0,0,.716.007c.1-.059.137-.115.034-.211a10.566,10.566,0,0,1-1.8-2.406,3.632,3.632,0,0,0-1.225-1.293.365.365,0,0,1-.19-.44.324.324,0,0,1,.386-.237c.058.005.113.019.128-.069a.411.411,0,0,0-.375-.467H7.675c-.174,0-.347,0-.521,0s-.2.14-.21.255c-.017.138.109.07.172.08a.364.364,0,0,1,.335.384.345.345,0,0,1-.377.333A.522.522,0,0,0,6.5,6.12a2.583,2.583,0,0,0-.107.441,9.779,9.779,0,0,0,.022,2.055,4.427,4.427,0,0,0,.149.918.607.607,0,0,0,.313.421c.109.05.192.047.188-.118-.008-.289,0-.579,0-.868,0-.271.129-.428.348-.433s.367.151.368.434c0,.4,0,.8,0,1.193a.539.539,0,0,0,.489.543c.157.016.234-.019.229-.2-.013-.441-.005-.882,0-1.323,0-.276.125-.425.35-.429s.366.147.366.433c0,.557,0,1.114,0,1.671a.535.535,0,0,0,.465.561c.182.032.257-.009.253-.216-.013-.622-.006-1.244,0-1.866,0-.243.126-.394.329-.406.234-.015.387.145.388.415C10.644,10.042,10.643,10.744,10.643,11.445ZM9.024,3.933v0c.585,0,1.17,0,1.755,0,.515,0,.507,0,.519-.528,0-.187-.044-.252-.24-.25-1.228.008-2.456,0-3.684.006-.559,0-.552.006-.556.573,0,.167.056.206.212.2C7.7,3.929,8.36,3.933,9.024,3.933Z" transform="translate(-1.288 -1.336)" fill="#fff"/>
</svg>
