<svg xmlns="http://www.w3.org/2000/svg" width="22.211" height="20.551" viewBox="0 0 22.211 20.551">
  <g id="Grupo_403" data-name="Grupo 403" transform="translate(-1644 1960.072)">
    <path id="Trazado_526" data-name="Trazado 526" d="M-819.777,53.582a1.289,1.289,0,0,1-.75,1.168,1.149,1.149,0,0,1-1.295-.255q-3.847-3.848-7.692-7.7c-.252-.252-.512-.5-.756-.757a.464.464,0,0,0-.393-.153,4.6,4.6,0,0,1-3.148-1.028A5.406,5.406,0,0,1-835.2,43c-1.079-2.1-2.17-4.2-3.255-6.3-.061-.118-.2-.257.055-.333.029-.009.044-.073.062-.113a.869.869,0,0,1,1.412-.243c.709.7,1.41,1.407,2.116,2.11q1.769,1.763,3.539,3.526c1.1,1.1,2.2,2.212,3.3,3.315.976.977,1.96,1.947,2.937,2.923.951.95,1.895,1.907,2.845,2.857.682.683,1.369,1.361,2.055,2.041A1.18,1.18,0,0,1-819.777,53.582Zm-.743.106a.329.329,0,0,0-.123-.3l-2.285-2.285-7-7-6.451-6.449q-.536-.536-1.073-1.071c-.04-.039-.083-.1-.149-.053s-.02.107.006.16c.013.027.027.053.041.079q1.629,3.148,3.259,6.3a3.655,3.655,0,0,0,3.942,2.011.338.338,0,0,1,.318.11c.265.271.536.537.8.8l7.964,7.965c.1.1.206.227.362.143A.75.75,0,0,0-820.52,53.687Z" transform="translate(2482.551 -1994.734)" fill="#fff"/>
    <path id="Trazado_527" data-name="Trazado 527" d="M-638.885,26.95a2.963,2.963,0,0,1-1.216-.237.229.229,0,0,0-.3.061c-.19.2-.391.388-.581.586-.086.09-.149.084-.241,0-.453-.4-.456-.4-.026-.827.221-.221.45-.434.659-.665a.276.276,0,0,1,.416-.054,2.427,2.427,0,0,0,2.5.1,2.387,2.387,0,0,0,.586-.441l4.925-4.885q.055-.055.108-.112a.146.146,0,0,0,0-.219.151.151,0,0,0-.235-.016c-.057.048-.109.1-.161.154-.988.989-1.979,1.975-2.961,2.969-.149.151-.239.165-.387,0-.313-.348-.641-.684-.974-1.012-.137-.134-.116-.216.01-.342q1.5-1.492,3-2.995a2.1,2.1,0,0,0,.152-.163.134.134,0,0,0-.025-.2c-.057-.059-.124-.093-.2-.044a1.112,1.112,0,0,0-.166.148c-1,1-2,1.995-2.994,3-.141.143-.228.157-.371,0-.316-.336-.645-.659-.979-.976-.134-.127-.133-.208,0-.34q1.506-1.491,3-2.994l.14-.143a.136.136,0,0,0,.006-.214.153.153,0,0,0-.234-.026c-.051.043-.1.091-.146.138q-2.414,2.413-4.827,4.826a2.423,2.423,0,0,0-.484,3.016.277.277,0,0,1-.06.387c-.319.3-.628.613-.931.93-.118.123-.2.136-.324.007-.387-.4-.413-.416.006-.775a.938.938,0,0,0,.329-1.079,3.051,3.051,0,0,1,.82-2.923c1.658-1.7,3.347-3.362,5.026-5.037a1,1,0,0,1,1.356-.03,1,1,0,0,1-.037,1.372q-1.274,1.282-2.554,2.557c-.066.067-.185.12-.064.25.094.1.163.13.27.015.193-.206.4-.4.6-.6.652-.652,1.306-1.3,1.955-1.957a.985.985,0,0,1,.648-.312.848.848,0,0,1,.864.391.983.983,0,0,1-.033,1.095,1.559,1.559,0,0,1-.208.232q-1.237,1.239-2.475,2.478c-.069.069-.173.125-.054.252s.179.123.3,0c.835-.847,1.682-1.683,2.518-2.529a1.023,1.023,0,0,1,.934-.309.936.936,0,0,1,.525,1.53,2.944,2.944,0,0,1-.216.225l-4.767,4.728A3.32,3.32,0,0,1-638.885,26.95Z" transform="translate(2297.463 -1976.359)" fill="#fff"/>
    <path id="Trazado_528" data-name="Trazado 528" d="M-805.335,243.634a1.083,1.083,0,0,1-.956-.676,1.048,1.048,0,0,1,.2-1.1,2.931,2.931,0,0,1,.265-.271l5.788-5.788c.226-.226.227-.227.446-.007.365.366.378.278,0,.654q-2.932,2.935-5.868,5.865a.33.33,0,0,0-.108.4.278.278,0,0,0,.3.151c.121,0,.179-.1.251-.169q2.872-2.869,5.742-5.74c.374-.373.263-.355.635,0,.23.221.228.224,0,.45q-2.91,2.91-5.818,5.821A1.383,1.383,0,0,1-805.335,243.634Z" transform="translate(2452.173 -2183.428)" fill="#fff"/>
    <path id="Trazado_529" data-name="Trazado 529" d="M-748.1,37.846a9.656,9.656,0,0,1,3.852.8c.181.078.218.148.126.328-.235.461-.225.459-.71.266a8.908,8.908,0,0,0-2.589-.61,8.718,8.718,0,0,0-6.111,1.805c-.187.14-.271.114-.4-.063-.294-.4-.307-.4.1-.684a9.688,9.688,0,0,1,4.846-1.8C-748.69,37.86-748.394,37.848-748.1,37.846Z" transform="translate(2402.865 -1996.712)" fill="#fff"/>
    <path id="Trazado_530" data-name="Trazado 530" d="M-734.992,347.812a9.847,9.847,0,0,1-5.1-1.449c-.153-.094-.163-.169-.071-.313.282-.444.278-.448.733-.191a8.9,8.9,0,0,0,4.151,1.186,8.806,8.806,0,0,0,4.177-.9c.067-.032.135-.061.2-.095a.133.133,0,0,1,.2.063c.007.013.015.026.021.039.294.618.381.464-.244.76a9.133,9.133,0,0,1-3.409.863C-734.548,347.789-734.769,347.818-734.992,347.812Z" transform="translate(2389.719 -2287.334)" fill="#fff"/>
    <path id="Trazado_531" data-name="Trazado 531" d="M-819.8,147.522a10.279,10.279,0,0,1,.691-3.707c.056-.143.12-.177.266-.117.526.214.516.206.333.735a8.713,8.713,0,0,0,.483,7.079,7.65,7.65,0,0,0,.677,1.1c.1.138.115.228-.042.344-.434.322-.435.334-.739-.115a9.47,9.47,0,0,1-1.593-4.371C-819.761,148.108-819.783,147.745-819.8,147.522Z" transform="translate(2464.85 -2096.617)" fill="#fff"/>
    <path id="Trazado_532" data-name="Trazado 532" d="M-519.115,158.6a9.851,9.851,0,0,1-2.006,5.991c-.168.222-.168.222-.392.046-.377-.3-.375-.294-.087-.688a8.838,8.838,0,0,0,1.667-4.22,8.663,8.663,0,0,0-.36-3.693c-.065-.2,0-.27.181-.329.482-.153.485-.162.623.323a8.366,8.366,0,0,1,.353,2.257C-519.135,158.416-519.119,158.542-519.115,158.6Z" transform="translate(2183.523 -2107.896)" fill="#fff"/>
    <path id="Trazado_533" data-name="Trazado 533" d="M-719.571,80.879a7.594,7.594,0,0,1,1.764.221c.166.04.2.109.156.266-.131.522-.124.511-.633.418a6.336,6.336,0,0,0-5,1.052c-.163.116-.25.114-.372-.054-.314-.434-.326-.433.126-.722A7.351,7.351,0,0,1-719.571,80.879Z" transform="translate(2374.296 -2037.338)" fill="#fff"/>
    <path id="Trazado_534" data-name="Trazado 534" d="M-704.893,315.145a7.253,7.253,0,0,1-3.365-.766c-.179-.087-.2-.17-.1-.34.239-.431.234-.442.683-.238a6.46,6.46,0,0,0,2.919.6,6.191,6.191,0,0,0,2.105-.431c.185-.074.276-.047.351.149.188.495.2.492-.3.658A6.7,6.7,0,0,1-704.893,315.145Z" transform="translate(2359.695 -2257.111)" fill="#fff"/>
    <path id="Trazado_535" data-name="Trazado 535" d="M-553.4,194.331a7.223,7.223,0,0,1-1.423,4.3c-.126.173-.214.189-.38.051-.473-.391-.405-.265-.1-.708a6.3,6.3,0,0,0,1.128-3.218c.024-.4,0-.786-.018-1.179,0-.135.025-.2.162-.2a.263.263,0,0,0,.044,0c.576-.091.576-.091.59.5C-553.4,194.033-553.4,194.182-553.4,194.331Z" transform="translate(2215.374 -2143.505)" fill="#fff"/>
    <path id="Trazado_536" data-name="Trazado 536" d="M-776.432,203.723c.016-.172-.03-.34,0-.513.017-.109.06-.161.167-.165l.067,0c.515-.031.507-.031.523.483a6.484,6.484,0,0,0,1.008,3.395c.221.343.208.28-.088.493-.349.251-.353.253-.58-.111A7.162,7.162,0,0,1-776.432,203.723Z" transform="translate(2423.917 -2152.656)" fill="#fff"/>
  </g>
</svg>
