<?xml version="1.0" encoding="UTF-8" standalone="no"?>
<svg
   xmlns:dc="http://purl.org/dc/elements/1.1/"
   xmlns:cc="http://creativecommons.org/ns#"
   xmlns:rdf="http://www.w3.org/1999/02/22-rdf-syntax-ns#"
   xmlns:svg="http://www.w3.org/2000/svg"
   xmlns="http://www.w3.org/2000/svg"
   xmlns:sodipodi="http://sodipodi.sourceforge.net/DTD/sodipodi-0.dtd"
   xmlns:inkscape="http://www.inkscape.org/namespaces/inkscape"
   width="22.211"
   height="20.551"
   viewBox="0 0 22.211 20.551"
   version="1.1"
   id="svg14"
   sodipodi:docname="restaurante-light (copy).svg"
   inkscape:version="0.92.3 (2405546, 2018-03-11)">
  <metadata
     id="metadata20">
    <rdf:RDF>
      <cc:Work
         rdf:about="">
        <dc:format>image/svg+xml</dc:format>
        <dc:type
           rdf:resource="http://purl.org/dc/dcmitype/StillImage" />
      </cc:Work>
    </rdf:RDF>
  </metadata>
  <defs
     id="defs18" />
  <sodipodi:namedview
     pagecolor="#ffffff"
     bordercolor="#666666"
     borderopacity="1"
     objecttolerance="10"
     gridtolerance="10"
     guidetolerance="10"
     inkscape:pageopacity="0"
     inkscape:pageshadow="2"
     inkscape:window-width="1366"
     inkscape:window-height="705"
     id="namedview16"
     showgrid="false"
     inkscape:zoom="11.483626"
     inkscape:cx="11.1055"
     inkscape:cy="10.2755"
     inkscape:window-x="0"
     inkscape:window-y="30"
     inkscape:window-maximized="1"
     inkscape:current-layer="svg14" />
  <path
     style="fill:#3e729a;fill-opacity:1"
     inkscape:connector-curvature="0"
     d="m 18.774,18.92 a 1.289,1.289 0 0 1 -0.75,1.168 1.149,1.149 0 0 1 -1.295,-0.255 q -3.847,-3.848 -7.692,-7.7 C 8.785,11.881 8.525,11.633 8.281,11.376 A 0.464,0.464 0 0 0 7.888,11.223 4.6,4.6 0 0 1 4.74,10.195 5.406,5.406 0 0 1 3.351,8.338 C 2.272,6.238 1.181,4.138 0.096,2.038 0.035,1.92 -0.104,1.781 0.151,1.705 0.18,1.696 0.195,1.632 0.213,1.592 A 0.869,0.869 0 0 1 1.625,1.349 c 0.709,0.7 1.41,1.407 2.116,2.11 Q 5.51,5.222 7.28,6.985 c 1.1,1.1 2.2,2.212 3.3,3.315 0.976,0.977 1.96,1.947 2.937,2.923 0.951,0.95 1.895,1.907 2.845,2.857 0.682,0.683 1.369,1.361 2.055,2.041 a 1.18,1.18 0 0 1 0.357,0.799 z m -0.743,0.106 a 0.329,0.329 0 0 0 -0.123,-0.3 l -2.285,-2.285 -7,-7 L 2.172,2.992 Q 1.636,2.456 1.099,1.921 C 1.059,1.882 1.016,1.821 0.95,1.868 0.884,1.915 0.93,1.975 0.956,2.028 0.969,2.055 0.983,2.081 0.997,2.107 q 1.629,3.148 3.259,6.3 a 3.655,3.655 0 0 0 3.942,2.011 0.338,0.338 0 0 1 0.318,0.11 c 0.265,0.271 0.536,0.537 0.8,0.8 l 7.964,7.965 c 0.1,0.1 0.206,0.227 0.362,0.143 a 0.75,0.75 0 0 0 0.389,-0.411 z"
     data-name="Trazado 526"
     id="Trazado_526" />
  <path
     style="fill:#3e729a;fill-opacity:1"
     inkscape:connector-curvature="0"
     d="m 14.578,10.663 a 2.963,2.963 0 0 1 -1.216,-0.237 0.229,0.229 0 0 0 -0.3,0.061 c -0.19,0.2 -0.391,0.388 -0.581,0.586 -0.086,0.09 -0.149,0.084 -0.241,0 -0.453,-0.4 -0.456,-0.4 -0.026,-0.827 0.221,-0.221 0.45,-0.434 0.659,-0.665 a 0.276,0.276 0 0 1 0.416,-0.054 2.427,2.427 0 0 0 2.5,0.1 2.387,2.387 0 0 0 0.586,-0.441 L 21.3,4.301 q 0.055,-0.055 0.108,-0.112 a 0.146,0.146 0 0 0 0,-0.219 0.151,0.151 0 0 0 -0.235,-0.016 c -0.057,0.048 -0.109,0.1 -0.161,0.154 -0.988,0.989 -1.979,1.975 -2.961,2.969 -0.149,0.151 -0.239,0.165 -0.387,0 C 17.351,6.729 17.023,6.393 16.69,6.065 16.553,5.931 16.574,5.849 16.7,5.723 q 1.5,-1.492 3,-2.995 a 2.1,2.1 0 0 0 0.152,-0.163 0.134,0.134 0 0 0 -0.025,-0.2 C 19.77,2.306 19.703,2.272 19.627,2.321 a 1.112,1.112 0 0 0 -0.166,0.148 c -1,1 -2,1.995 -2.994,3 -0.141,0.143 -0.228,0.157 -0.371,0 C 15.78,5.133 15.451,4.81 15.117,4.493 c -0.134,-0.127 -0.133,-0.208 0,-0.34 q 1.506,-1.491 3,-2.994 l 0.14,-0.143 A 0.136,0.136 0 0 0 18.263,0.802 0.153,0.153 0 0 0 18.029,0.776 c -0.051,0.043 -0.1,0.091 -0.146,0.138 Q 15.469,3.327 13.056,5.74 a 2.423,2.423 0 0 0 -0.484,3.016 0.277,0.277 0 0 1 -0.06,0.387 c -0.319,0.3 -0.628,0.613 -0.931,0.93 -0.118,0.123 -0.2,0.136 -0.324,0.007 -0.387,-0.4 -0.413,-0.416 0.006,-0.775 a 0.938,0.938 0 0 0 0.329,-1.079 3.051,3.051 0 0 1 0.82,-2.923 c 1.658,-1.7 3.347,-3.362 5.026,-5.037 a 1,1 0 0 1 1.356,-0.03 1,1 0 0 1 -0.037,1.372 Q 17.483,2.89 16.203,4.165 c -0.066,0.067 -0.185,0.12 -0.064,0.25 0.094,0.1 0.163,0.13 0.27,0.015 0.193,-0.206 0.4,-0.4 0.6,-0.6 0.652,-0.652 1.306,-1.3 1.955,-1.957 a 0.985,0.985 0 0 1 0.648,-0.312 0.848,0.848 0 0 1 0.864,0.391 0.983,0.983 0 0 1 -0.033,1.095 1.559,1.559 0 0 1 -0.208,0.232 Q 18.998,4.518 17.76,5.757 c -0.069,0.069 -0.173,0.125 -0.054,0.252 0.119,0.127 0.179,0.123 0.3,0 0.835,-0.847 1.682,-1.683 2.518,-2.529 a 1.023,1.023 0 0 1 0.934,-0.309 0.936,0.936 0 0 1 0.525,1.53 2.944,2.944 0 0 1 -0.216,0.225 L 17,9.654 a 3.32,3.32 0 0 1 -2.422,1.009 z"
     data-name="Trazado 527"
     id="Trazado_527" />
  <path
     style="fill:#3e729a;fill-opacity:1"
     inkscape:connector-curvature="0"
     d="m 2.838,20.278 a 1.083,1.083 0 0 1 -0.956,-0.676 1.048,1.048 0 0 1 0.2,-1.1 2.931,2.931 0 0 1 0.265,-0.271 l 5.788,-5.788 c 0.226,-0.226 0.227,-0.227 0.446,-0.007 0.365,0.366 0.378,0.278 0,0.654 q -2.932,2.935 -5.868,5.865 a 0.33,0.33 0 0 0 -0.108,0.4 0.278,0.278 0 0 0 0.3,0.151 c 0.121,0 0.179,-0.1 0.251,-0.169 q 2.872,-2.869 5.742,-5.74 c 0.374,-0.373 0.263,-0.355 0.635,0 0.23,0.221 0.228,0.224 0,0.45 q -2.91,2.91 -5.818,5.821 a 1.383,1.383 0 0 1 -0.877,0.41 z"
     data-name="Trazado 528"
     id="Trazado_528" />
  <path
     style="fill:#3e729a;fill-opacity:1"
     inkscape:connector-curvature="0"
     d="m 10.765,1.206 a 9.656,9.656 0 0 1 3.852,0.8 c 0.181,0.078 0.218,0.148 0.126,0.328 -0.235,0.461 -0.225,0.459 -0.71,0.266 A 8.908,8.908 0 0 0 11.444,1.99 8.718,8.718 0 0 0 5.333,3.795 c -0.187,0.14 -0.271,0.114 -0.4,-0.063 -0.294,-0.4 -0.307,-0.4 0.1,-0.684 a 9.688,9.688 0 0 1 4.846,-1.8 c 0.296,-0.028 0.592,-0.04 0.886,-0.042 z"
     data-name="Trazado 529"
     id="Trazado_529" />
  <path
     style="fill:#3e729a;fill-opacity:1"
     inkscape:connector-curvature="0"
     d="m 10.727,20.55 a 9.847,9.847 0 0 1 -5.1,-1.449 C 5.474,19.007 5.464,18.932 5.556,18.788 5.838,18.344 5.834,18.34 6.289,18.597 a 8.9,8.9 0 0 0 4.151,1.186 8.806,8.806 0 0 0 4.177,-0.9 c 0.067,-0.032 0.135,-0.061 0.2,-0.095 a 0.133,0.133 0 0 1 0.2,0.063 c 0.007,0.013 0.015,0.026 0.021,0.039 0.294,0.618 0.381,0.464 -0.244,0.76 a 9.133,9.133 0 0 1 -3.409,0.863 c -0.214,0.014 -0.435,0.043 -0.658,0.037 z"
     data-name="Trazado 530"
     id="Trazado_530" />
  <path
     style="fill:#3e729a;fill-opacity:1"
     inkscape:connector-curvature="0"
     d="M 1.05,10.977 A 10.279,10.279 0 0 1 1.741,7.27 C 1.797,7.127 1.861,7.093 2.007,7.153 2.533,7.367 2.523,7.359 2.34,7.888 a 8.713,8.713 0 0 0 0.483,7.079 7.65,7.65 0 0 0 0.677,1.1 c 0.1,0.138 0.115,0.228 -0.042,0.344 -0.434,0.322 -0.435,0.334 -0.739,-0.115 A 9.47,9.47 0 0 1 1.126,11.925 C 1.089,11.563 1.067,11.2 1.05,10.977 Z"
     data-name="Trazado 531"
     id="Trazado_531" />
  <path
     style="fill:#3e729a;fill-opacity:1"
     inkscape:connector-curvature="0"
     d="m 20.408,10.776 a 9.851,9.851 0 0 1 -2.006,5.991 c -0.168,0.222 -0.168,0.222 -0.392,0.046 -0.377,-0.3 -0.375,-0.294 -0.087,-0.688 a 8.838,8.838 0 0 0 1.667,-4.22 8.663,8.663 0 0 0 -0.36,-3.693 c -0.065,-0.2 0,-0.27 0.181,-0.329 0.482,-0.153 0.485,-0.162 0.623,0.323 a 8.366,8.366 0 0 1 0.353,2.257 c 0.001,0.129 0.017,0.255 0.021,0.313 z"
     data-name="Trazado 532"
     id="Trazado_532" />
  <path
     style="fill:#3e729a;fill-opacity:1"
     inkscape:connector-curvature="0"
     d="m 10.725,3.613 a 7.594,7.594 0 0 1 1.764,0.221 c 0.166,0.04 0.2,0.109 0.156,0.266 -0.131,0.522 -0.124,0.511 -0.633,0.418 a 6.336,6.336 0 0 0 -5,1.052 C 6.849,5.686 6.762,5.684 6.64,5.516 6.326,5.082 6.314,5.083 6.766,4.794 a 7.351,7.351 0 0 1 3.959,-1.181 z"
     data-name="Trazado 533"
     id="Trazado_533" />
  <path
     style="fill:#3e729a;fill-opacity:1"
     inkscape:connector-curvature="0"
     d="M 10.802,18.106 A 7.253,7.253 0 0 1 7.437,17.34 C 7.258,17.253 7.237,17.17 7.337,17 7.576,16.569 7.571,16.558 8.02,16.762 a 6.46,6.46 0 0 0 2.919,0.6 6.191,6.191 0 0 0 2.105,-0.431 c 0.185,-0.074 0.276,-0.047 0.351,0.149 0.188,0.495 0.2,0.492 -0.3,0.658 a 6.7,6.7 0 0 1 -2.293,0.368 z"
     data-name="Trazado 534"
     id="Trazado_534" />
  <path
     style="fill:#3e729a;fill-opacity:1"
     inkscape:connector-curvature="0"
     d="m 17.974,10.898 a 7.223,7.223 0 0 1 -1.423,4.3 c -0.126,0.173 -0.214,0.189 -0.38,0.051 -0.473,-0.391 -0.405,-0.265 -0.1,-0.708 a 6.3,6.3 0 0 0 1.128,-3.218 c 0.024,-0.4 0,-0.786 -0.018,-1.179 0,-0.135 0.025,-0.2 0.162,-0.2 a 0.263,0.263 0 0 0 0.044,0 c 0.576,-0.091 0.576,-0.091 0.59,0.5 -0.003,0.156 -0.003,0.305 -0.003,0.454 z"
     data-name="Trazado 535"
     id="Trazado_535" />
  <path
     style="fill:#3e729a;fill-opacity:1"
     inkscape:connector-curvature="0"
     d="m 3.485,11.139 c 0.016,-0.172 -0.03,-0.34 0,-0.513 0.017,-0.109 0.06,-0.161 0.167,-0.165 H 3.719 C 4.234,10.43 4.226,10.43 4.242,10.944 a 6.484,6.484 0 0 0 1.008,3.395 c 0.221,0.343 0.208,0.28 -0.088,0.493 -0.349,0.251 -0.353,0.253 -0.58,-0.111 A 7.162,7.162 0 0 1 3.485,11.139 Z"
     data-name="Trazado 536"
     id="Trazado_536" />
</svg>
